<svg role="img" fill="currentColor" viewBox="0 0 24 24" xmlns="http://www.w3.org/2000/svg" id="Mailtrap--Streamline-Simple-Icons"><desc>Mailtrap Icon</desc><title>Mailtrap</title><path d="M5.37146 17.60681 3.33477 18.8148c-0.27629 0.18168 -0.15004 0.49398 0 0.55693l7.90979 4.43194c0.46722 0.26178 1.04287 0.26178 1.51009 0l8.01458 -4.49068c0.24282 -0.14382 0.20298 -0.43614 0 -0.53479l-2.15348 -1.16353c-0.18174 -0.11994 -0.58711 -0.08004 -0.73069 0.01758l-5.13041 2.87463c-0.46722 0.26178 -1.04287 0.26178 -1.51009 0l-5.17584 -2.90007c-0.19295 -0.11868 -0.4986 -0.11196 -0.69726 0ZM11.24492 0.19634c0.46722 -0.26179 1.04281 -0.26179 1.51003 0l6.36966 3.56896c0.25428 0.12865 0.27732 0.47404 0 0.62979 -0.41988 0.23442 -0.98311 0.54855 -1.45045 0.80916 -0.54595 0.30446 -1.21057 0.30357 -1.75592 -0.00201l-3.16329 -1.7724c-0.46722 -0.26179 -1.04281 -0.26179 -1.51003 0l-3.16701 1.7745c-0.54577 0.30577 -1.21096 0.30634 -1.75727 0.00163 -0.48583 -0.27097 -1.07519 -0.59951 -1.49988 -0.83566 -0.23557 -0.10117 -0.28461 -0.40149 0 -0.57448L11.24492 0.19634Zm10.72402 5.37209c0.46723 0.26179 0.75505 0.74561 0.75505 1.26917v10.32526c0 0.51102 -0.32004 0.60637 -0.66139 0.42786l-2.3588 -1.27315V9.37593l-6.94878 3.8935c-0.46722 0.26178 -1.04281 0.26178 -1.51003 0l-6.94881 -3.8935v6.9408L2.1528 17.58922c-0.25545 0.16242 -0.87679 0.2136 -0.87679 -0.42636V6.8376c0 -0.52356 0.28782 -1.00739 0.75504 -1.26917 0.75174 -0.39366 1.52849 0 1.52849 0l8.44043 4.73955 8.42726 -4.73955s0.74839 -0.45137 1.54171 0Z" fill="#000000" stroke-width="1"/></svg>
