<svg xmlns="http://www.w3.org/2000/svg" fill="none" height="64" viewBox="0 0 36 41" width="64"><path d="m6.82569 29.6986-3.39445 2.0134c-.46048.3028-.25006.8233 0 .9281l13.18286 7.3865c.7787.4363 1.7381.4363 2.5168 0l13.3575-7.4843c.4047-.2397.3383-.727 0-.8914l-3.5891-1.9392c-.3029-.1998-.9785-.1334-1.2178.0294l-8.5506 4.7909c-.7787.4363-1.7381.4363-2.5168 0l-8.62632-4.8334c-.32158-.1978-.83099-.1866-1.16209 0z" fill="#1a2e44"/><path d="m16.6147.681236c.7787-.436309 1.738-.436309 2.5167 0 0 0 9.9943 5.599884 10.616 5.948214.4238.21442.4622.79006 0 1.04964-.6998.39069-1.6385.91423-2.4174 1.34858-.9099.50744-2.0176.50594-2.9265-.00335l-5.2721-2.95396c-.7787-.43631-1.738-.43631-2.5167 0l-5.2783 2.95747c-.9096.50962-2.01824.51056-2.92876.00272-.80971-.45163-1.79196-.99918-2.49978-1.39276-.39262-.1686-.47434-.66914 0-.95745z" fill="#1a2e44"/><path d="m34.4879 9.63439c.7787.43631 1.2584 1.24261 1.2584 2.11521v17.2086c0 .8517-.5334 1.0106-1.1023.7132l-3.9313-2.1219v-11.5693l-11.5812 6.489c-.7787.4363-1.738.4363-2.5167 0l-11.58124-6.489v11.5679l-3.57226 2.1208c-.42574.2707-1.4613.356-1.4613-.7107v-17.2086c0-.8726.479696-1.6789 1.25839-2.11521 1.25288-.65609 2.54746 0 2.54746 0l14.06725 7.89921 14.0453-7.89921s1.2473-.75227 2.5695 0z" fill="#22d172"/><script xmlns=""/></svg>
